<?xml version="1.0" encoding="utf-8"?>
<!-- Generator: Adobe Illustrator 19.2.1, SVG Export Plug-In . SVG Version: 6.00 Build 0)  -->
<svg version="1.1" id="Layer_1" xmlns="http://www.w3.org/2000/svg" xmlns:xlink="http://www.w3.org/1999/xlink" x="0px" y="0px"
	 viewBox="0 0 134.5 134.5" style="enable-background:new 0 0 134.5 134.5;" xml:space="preserve">
<style type="text/css">
	.st0{clip-path:url(#SVGID_2_);fill:#232120;}
	.st1{fill:#00788D;}
	.st2{fill:none;stroke:#232120;stroke-width:0.527;}
	.st3{fill:#232120;}
	.st4{clip-path:url(#SVGID_4_);fill:#232120;}
	.st5{clip-path:url(#SVGID_4_);fill:#FFFFFF;}
	.st6{clip-path:url(#SVGID_4_);fill:none;stroke:#FFFFFF;stroke-width:0.115;stroke-miterlimit:10;}
</style>
<g>
	<g>
		<defs>
			<rect id="SVGID_1_" width="134.5" height="134.5"/>
		</defs>
		<clipPath id="SVGID_2_">
			<use xlink:href="#SVGID_1_"  style="overflow:visible;"/>
		</clipPath>
		<path class="st0" d="M0,67.3c0,37.1,30.1,67.3,67.3,67.3c37.1,0,67.3-30.1,67.3-67.3C134.5,30.1,104.4,0,67.3,0
			C30.1,0,0,30.1,0,67.3"/>
	</g>
	<rect x="31" y="19" class="st1" width="72.9" height="96.3"/>
	<rect x="31" y="19" class="st2" width="72.9" height="96.3"/>
	<rect x="59.8" y="18.8" class="st3" width="14.7" height="68.8"/>
	<rect x="30.1" y="87.3" class="st3" width="74.4" height="28.4"/>
	<polygon class="st3" points="56.3,27 56.3,78.6 47.7,78.6 42.4,55.2 42.4,78.6 34.7,78.6 34.7,27 42.6,27 48.3,50.3 48.3,27 	"/>
	<g>
		<defs>
			<rect id="SVGID_3_" width="134.5" height="134.5"/>
		</defs>
		<clipPath id="SVGID_4_">
			<use xlink:href="#SVGID_3_"  style="overflow:visible;"/>
		</clipPath>
		<path class="st4" d="M90.9,35.7v34.1v0.4h-0.1c-0.2,0.9-1,1.6-2,1.6c-1,0-1.8-0.7-2-1.6h-0.1v-0.4V35.7c0-1.1,0.9-2,2-2
			C89.9,33.7,90.9,34.6,90.9,35.7 M88.8,78.7c10.1,0,10.6-8.4,10.6-8.4V35.7c-0.1-0.1-0.7-8.4-10.6-8.4c-9.9,0-10.5,8.3-10.7,8.4
			v34.6C78.2,70.2,78.7,78.7,88.8,78.7"/>
		<path class="st5" d="M71.4,79.2v3h-8.7v-2.5c2.6-4.7,4.1-7.6,4.6-8.7c0.5-1.1,0.7-2,0.7-2.6c0-0.5-0.1-0.8-0.2-1.1
			c-0.1-0.2-0.4-0.4-0.7-0.4c-0.3,0-0.5,0.1-0.7,0.4c-0.1,0.3-0.2,0.8-0.2,1.6v1.7h-3.5V70c0-1,0-1.8,0.1-2.3
			c0.1-0.6,0.3-1.1,0.7-1.7s0.8-1,1.4-1.3c0.6-0.3,1.3-0.4,2.1-0.4c1.6,0,2.8,0.4,3.6,1.3c0.8,0.9,1.2,2,1.2,3.3
			c0,1-0.2,2.1-0.7,3.2c-0.5,1.1-1.8,3.5-4,7.2H71.4z"/>
		<path class="st5" d="M38.1,97.1c-0.3-0.3-0.8-0.5-1.3-0.5h-0.2c-0.3,0-0.4,0.1-0.4,0.4v2.4c0,0.3,0.1,0.4,0.4,0.4H37
			c1.1,0,1.6-0.5,1.6-1.5C38.6,97.8,38.4,97.4,38.1,97.1 M36.8,92.4h-0.2c-0.3,0-0.4,0.2-0.4,0.5v1.9c0,0.1,0,0.2,0.1,0.3
			c0.1,0.1,0.2,0.1,0.3,0.1h0.2c0.5,0,0.9-0.1,1.2-0.4c0.3-0.3,0.4-0.6,0.4-1.1C38.3,92.8,37.8,92.4,36.8,92.4 M39.4,100.5
			c-0.6,0.5-1.3,0.8-2.3,0.8H35c-0.1,0-0.2,0-0.3-0.1c-0.1-0.1-0.1-0.2-0.1-0.3v-9.6c0-0.1,0-0.2,0.1-0.3c0.1-0.1,0.2-0.1,0.3-0.1h2
			c1,0,1.7,0.2,2.2,0.7c0.5,0.5,0.8,1.1,0.8,1.9c0,1.1-0.4,1.8-1.3,2.2c-0.1,0-0.1,0.1-0.1,0.2c0,0,0,0.1,0.1,0.1
			c1,0.4,1.5,1.2,1.5,2.4C40.2,99.3,40,100,39.4,100.5"/>
		<path class="st6" d="M38.1,97.1c-0.3-0.3-0.8-0.5-1.3-0.5h-0.2c-0.3,0-0.4,0.1-0.4,0.4v2.4c0,0.3,0.1,0.4,0.4,0.4H37
			c1.1,0,1.6-0.5,1.6-1.5C38.6,97.8,38.4,97.4,38.1,97.1z M36.8,92.4h-0.2c-0.3,0-0.4,0.2-0.4,0.5v1.9c0,0.1,0,0.2,0.1,0.3
			c0.1,0.1,0.2,0.1,0.3,0.1h0.2c0.5,0,0.9-0.1,1.2-0.4c0.3-0.3,0.4-0.6,0.4-1.1C38.3,92.8,37.8,92.4,36.8,92.4z M39.4,100.5
			c-0.6,0.5-1.3,0.8-2.3,0.8H35c-0.1,0-0.2,0-0.3-0.1c-0.1-0.1-0.1-0.2-0.1-0.3v-9.6c0-0.1,0-0.2,0.1-0.3c0.1-0.1,0.2-0.1,0.3-0.1h2
			c1,0,1.7,0.2,2.2,0.7c0.5,0.5,0.8,1.1,0.8,1.9c0,1.1-0.4,1.8-1.3,2.2c-0.1,0-0.1,0.1-0.1,0.2c0,0,0,0.1,0.1,0.1
			c1,0.4,1.5,1.2,1.5,2.4C40.2,99.3,40,100,39.4,100.5z"/>
		<path class="st5" d="M52.9,92.7c-0.2-0.2-0.7-0.4-1.3-0.4h-0.2c-0.1,0-0.2,0-0.3,0.1c-0.1,0.1-0.1,0.2-0.1,0.3v2.3
			c0,0.3,0.1,0.4,0.4,0.4h0.2c0.6,0,1-0.1,1.3-0.4c0.2-0.2,0.4-0.7,0.4-1.2C53.3,93.4,53.1,93,52.9,92.7 M54.9,100.9
			c0,0,0,0.1,0,0.1c0,0.2-0.1,0.3-0.3,0.3h-0.9c-0.3,0-0.5-0.1-0.6-0.4l-1.1-3.4C52,97.2,51.9,97,51.6,97h-0.1
			c-0.3,0-0.4,0.1-0.4,0.4v3.4c0,0.3-0.1,0.4-0.4,0.4h-0.8c-0.3,0-0.4-0.1-0.4-0.4v-9.6c0-0.1,0-0.2,0.1-0.3
			c0.1-0.1,0.2-0.1,0.3-0.1H52c2,0,3,1,3,3c0,1.2-0.3,2-1.1,2.5c-0.2,0.2-0.3,0.3-0.2,0.5L54.9,100.9z"/>
		<path class="st6" d="M52.9,92.7c-0.2-0.2-0.7-0.4-1.3-0.4h-0.2c-0.1,0-0.2,0-0.3,0.1c-0.1,0.1-0.1,0.2-0.1,0.3v2.3
			c0,0.3,0.1,0.4,0.4,0.4h0.2c0.6,0,1-0.1,1.3-0.4c0.2-0.2,0.4-0.7,0.4-1.2C53.3,93.4,53.1,93,52.9,92.7z M54.9,100.9
			c0,0,0,0.1,0,0.1c0,0.2-0.1,0.3-0.3,0.3h-0.9c-0.3,0-0.5-0.1-0.6-0.4l-1.1-3.4C52,97.2,51.9,97,51.6,97h-0.1
			c-0.3,0-0.4,0.1-0.4,0.4v3.4c0,0.3-0.1,0.4-0.4,0.4h-0.8c-0.3,0-0.4-0.1-0.4-0.4v-9.6c0-0.1,0-0.2,0.1-0.3
			c0.1-0.1,0.2-0.1,0.3-0.1H52c2,0,3,1,3,3c0,1.2-0.3,2-1.1,2.5c-0.2,0.2-0.3,0.3-0.2,0.5L54.9,100.9z"/>
		<path class="st5" d="M66.5,93.3C66.5,93.3,66.4,93.3,66.5,93.3c-0.1-0.1-0.1-0.1-0.2,0l-0.7,3.8c0,0.2,0.1,0.4,0.4,0.4h0.8
			c0.3,0,0.4-0.1,0.3-0.4L66.5,93.3z M69.5,100.9c0,0.3-0.1,0.4-0.4,0.4h-0.8c-0.3,0-0.4-0.1-0.5-0.4l-0.3-1.4
			c-0.1-0.3-0.2-0.4-0.5-0.4h-1.4c-0.1,0-0.2,0-0.3,0.1c-0.1,0.1-0.2,0.2-0.2,0.3l-0.3,1.4c-0.1,0.3-0.2,0.4-0.5,0.4h-0.8
			c-0.3,0-0.4-0.1-0.3-0.4l1.8-9.6c0-0.3,0.2-0.4,0.5-0.4h1.4c0.3,0,0.5,0.1,0.5,0.4L69.5,100.9z"/>
		<path class="st6" d="M66.5,93.3C66.5,93.3,66.4,93.3,66.5,93.3c-0.1-0.1-0.1-0.1-0.2,0l-0.7,3.8c0,0.2,0.1,0.4,0.4,0.4h0.8
			c0.3,0,0.4-0.1,0.3-0.4L66.5,93.3z M69.5,100.9c0,0.3-0.1,0.4-0.4,0.4h-0.8c-0.3,0-0.4-0.1-0.5-0.4l-0.3-1.4
			c-0.1-0.3-0.2-0.4-0.5-0.4h-1.4c-0.1,0-0.2,0-0.3,0.1c-0.1,0.1-0.2,0.2-0.2,0.3l-0.3,1.4c-0.1,0.3-0.2,0.4-0.5,0.4h-0.8
			c-0.3,0-0.4-0.1-0.3-0.4l1.8-9.6c0-0.3,0.2-0.4,0.5-0.4h1.4c0.3,0,0.5,0.1,0.5,0.4L69.5,100.9z"/>
		<path class="st5" d="M84.2,100.9c0,0.1,0,0.2-0.1,0.3c-0.1,0.1-0.2,0.1-0.3,0.1H83c-0.3,0-0.5-0.1-0.6-0.4l-2.3-5.4
			c0-0.1-0.1-0.1-0.1-0.1c0,0-0.1,0.1-0.1,0.1v5.4c0,0.3-0.1,0.4-0.4,0.4h-0.8c-0.3,0-0.4-0.1-0.4-0.4v-9.6c0-0.3,0.1-0.4,0.4-0.4
			h0.8c0.3,0,0.5,0.1,0.6,0.4l2.3,5.4c0,0.1,0.1,0.1,0.1,0.1c0,0,0.1,0,0.1-0.1v-5.4c0-0.3,0.1-0.4,0.4-0.4h0.8
			c0.3,0,0.4,0.1,0.4,0.4V100.9z M84.2,100.9c0,0.1,0,0.2-0.1,0.3c-0.1,0.1-0.2,0.1-0.3,0.1H83c-0.3,0-0.5-0.1-0.6-0.4l-2.3-5.4
			c0-0.1-0.1-0.1-0.1-0.1c0,0-0.1,0.1-0.1,0.1v5.4c0,0.3-0.1,0.4-0.4,0.4h-0.8c-0.3,0-0.4-0.1-0.4-0.4v-9.6c0-0.3,0.1-0.4,0.4-0.4
			h0.8c0.3,0,0.5,0.1,0.6,0.4l2.3,5.4c0,0.1,0.1,0.1,0.1,0.1c0,0,0.1,0,0.1-0.1v-5.4c0-0.3,0.1-0.4,0.4-0.4h0.8
			c0.3,0,0.4,0.1,0.4,0.4V100.9z"/>
		<path class="st6" d="M84.2,100.9c0,0.1,0,0.2-0.1,0.3c-0.1,0.1-0.2,0.1-0.3,0.1H83c-0.3,0-0.5-0.1-0.6-0.4l-2.3-5.4
			c0-0.1-0.1-0.1-0.1-0.1c0,0-0.1,0.1-0.1,0.1v5.4c0,0.3-0.1,0.4-0.4,0.4h-0.8c-0.3,0-0.4-0.1-0.4-0.4v-9.6c0-0.3,0.1-0.4,0.4-0.4
			h0.8c0.3,0,0.5,0.1,0.6,0.4l2.3,5.4c0,0.1,0.1,0.1,0.1,0.1c0,0,0.1,0,0.1-0.1v-5.4c0-0.3,0.1-0.4,0.4-0.4h0.8
			c0.3,0,0.4,0.1,0.4,0.4V100.9z M84.2,100.9c0,0.1,0,0.2-0.1,0.3c-0.1,0.1-0.2,0.1-0.3,0.1H83c-0.3,0-0.5-0.1-0.6-0.4l-2.3-5.4
			c0-0.1-0.1-0.1-0.1-0.1c0,0-0.1,0.1-0.1,0.1v5.4c0,0.3-0.1,0.4-0.4,0.4h-0.8c-0.3,0-0.4-0.1-0.4-0.4v-9.6c0-0.3,0.1-0.4,0.4-0.4
			h0.8c0.3,0,0.5,0.1,0.6,0.4l2.3,5.4c0,0.1,0.1,0.1,0.1,0.1c0,0,0.1,0,0.1-0.1v-5.4c0-0.3,0.1-0.4,0.4-0.4h0.8
			c0.3,0,0.4,0.1,0.4,0.4V100.9z"/>
		<path class="st5" d="M97.6,94.6c0-0.8-0.1-1.4-0.3-1.7c-0.2-0.3-0.6-0.5-1.2-0.5h-0.4c-0.3,0-0.4,0.1-0.4,0.4v6.7
			c0,0.2,0.1,0.3,0.3,0.3h0.5c0.6,0,0.9-0.2,1.2-0.5c0.2-0.3,0.3-0.9,0.3-1.7V94.6z M99.2,98c0,2.2-1,3.3-3,3.3H94
			c-0.2,0-0.4-0.1-0.4-0.4v-9.6c0-0.1,0-0.2,0.1-0.3c0.1-0.1,0.2-0.1,0.3-0.1h2.1c2,0,3,1.1,3,3.2V98z"/>
		<path class="st6" d="M97.6,94.6c0-0.8-0.1-1.4-0.3-1.7c-0.2-0.3-0.6-0.5-1.2-0.5h-0.4c-0.3,0-0.4,0.1-0.4,0.4v6.7
			c0,0.2,0.1,0.3,0.3,0.3h0.5c0.6,0,0.9-0.2,1.2-0.5c0.2-0.3,0.3-0.9,0.3-1.7V94.6z M99.2,98c0,2.2-1,3.3-3,3.3H94
			c-0.2,0-0.4-0.1-0.4-0.4v-9.6c0-0.1,0-0.2,0.1-0.3c0.1-0.1,0.2-0.1,0.3-0.1h2.1c2,0,3,1.1,3,3.2V98z"/>
		<path class="st5" d="M36.6,106.6C36.6,106.5,36.6,106.5,36.6,106.6c-0.1-0.1-0.1,0-0.1,0l-0.4,2.5c0,0.2,0,0.3,0.2,0.3h0.5
			c0.2,0,0.3-0.1,0.2-0.3L36.6,106.6z M38.6,111.6c0,0.2,0,0.3-0.2,0.3h-0.5c-0.2,0-0.3-0.1-0.3-0.3l-0.2-0.9
			c-0.1-0.2-0.2-0.3-0.3-0.3h-0.9c-0.1,0-0.1,0-0.2,0.1c-0.1,0.1-0.1,0.1-0.1,0.2l-0.2,0.9c0,0.2-0.1,0.3-0.3,0.3h-0.5
			c-0.2,0-0.2-0.1-0.2-0.3l1.2-6.4c0-0.2,0.1-0.3,0.3-0.3H37c0.2,0,0.3,0.1,0.3,0.3L38.6,111.6z"/>
		<path class="st6" d="M36.6,106.6C36.6,106.5,36.6,106.5,36.6,106.6c-0.1-0.1-0.1,0-0.1,0l-0.4,2.5c0,0.2,0,0.3,0.2,0.3h0.5
			c0.2,0,0.3-0.1,0.2-0.3L36.6,106.6z M38.6,111.6c0,0.2,0,0.3-0.2,0.3h-0.5c-0.2,0-0.3-0.1-0.3-0.3l-0.2-0.9
			c-0.1-0.2-0.2-0.3-0.3-0.3h-0.9c-0.1,0-0.1,0-0.2,0.1c-0.1,0.1-0.1,0.1-0.1,0.2l-0.2,0.9c0,0.2-0.1,0.3-0.3,0.3h-0.5
			c-0.2,0-0.2-0.1-0.2-0.3l1.2-6.4c0-0.2,0.1-0.3,0.3-0.3H37c0.2,0,0.3,0.1,0.3,0.3L38.6,111.6z"/>
		<path class="st5" d="M45.9,109.7c0,1.5-0.6,2.3-1.9,2.3c-0.7,0-1.2-0.2-1.5-0.8c-0.2-0.3-0.3-0.6-0.3-0.9c0-0.2,0-0.5,0-1v-1.9
			c0-0.5,0-0.8,0-1c0-0.4,0.2-0.7,0.4-0.9c0.3-0.4,0.8-0.7,1.5-0.7c0.6,0,1,0.2,1.4,0.6c0.3,0.4,0.5,0.9,0.5,1.5
			c0,0.1,0,0.1-0.1,0.2c-0.1,0-0.1,0.1-0.2,0.1h-0.5c-0.2,0-0.3-0.1-0.3-0.3c0-0.7-0.3-1.1-0.8-1.1c-0.3,0-0.5,0.1-0.6,0.3
			c-0.1,0.2-0.2,0.6-0.2,1.1v2.3c0,0.6,0.1,0.9,0.2,1.2c0.1,0.2,0.3,0.3,0.6,0.3c0.5,0,0.8-0.4,0.8-1.3c0-0.2,0.1-0.3,0.3-0.3h0.5
			C45.8,109.4,45.9,109.5,45.9,109.7 M45.9,109.7c0,1.5-0.6,2.3-1.9,2.3c-0.7,0-1.2-0.2-1.5-0.8c-0.2-0.3-0.3-0.6-0.3-0.9
			c0-0.2,0-0.5,0-1v-1.9c0-0.5,0-0.8,0-1c0-0.4,0.2-0.7,0.4-0.9c0.3-0.4,0.8-0.7,1.5-0.7c0.6,0,1,0.2,1.4,0.6
			c0.3,0.4,0.5,0.9,0.5,1.5c0,0.1,0,0.1-0.1,0.2c-0.1,0-0.1,0.1-0.2,0.1h-0.5c-0.2,0-0.3-0.1-0.3-0.3c0-0.7-0.3-1.1-0.8-1.1
			c-0.3,0-0.5,0.1-0.6,0.3c-0.1,0.2-0.2,0.6-0.2,1.1v2.3c0,0.6,0.1,0.9,0.2,1.2c0.1,0.2,0.3,0.3,0.6,0.3c0.5,0,0.8-0.4,0.8-1.3
			c0-0.2,0.1-0.3,0.3-0.3h0.5C45.8,109.4,45.9,109.5,45.9,109.7"/>
		<path class="st6" d="M45.9,109.7c0,1.5-0.6,2.3-1.9,2.3c-0.7,0-1.2-0.2-1.5-0.8c-0.2-0.3-0.3-0.6-0.3-0.9c0-0.2,0-0.5,0-1v-1.9
			c0-0.5,0-0.8,0-1c0-0.4,0.2-0.7,0.4-0.9c0.3-0.4,0.8-0.7,1.5-0.7c0.6,0,1,0.2,1.4,0.6c0.3,0.4,0.5,0.9,0.5,1.5
			c0,0.1,0,0.1-0.1,0.2c-0.1,0-0.1,0.1-0.2,0.1h-0.5c-0.2,0-0.3-0.1-0.3-0.3c0-0.7-0.3-1.1-0.8-1.1c-0.3,0-0.5,0.1-0.6,0.3
			c-0.1,0.2-0.2,0.6-0.2,1.1v2.3c0,0.6,0.1,0.9,0.2,1.2c0.1,0.2,0.3,0.3,0.6,0.3c0.5,0,0.8-0.4,0.8-1.3c0-0.2,0.1-0.3,0.3-0.3h0.5
			C45.8,109.4,45.9,109.5,45.9,109.7z M45.9,109.7c0,1.5-0.6,2.3-1.9,2.3c-0.7,0-1.2-0.2-1.5-0.8c-0.2-0.3-0.3-0.6-0.3-0.9
			c0-0.2,0-0.5,0-1v-1.9c0-0.5,0-0.8,0-1c0-0.4,0.2-0.7,0.4-0.9c0.3-0.4,0.8-0.7,1.5-0.7c0.6,0,1,0.2,1.4,0.6
			c0.3,0.4,0.5,0.9,0.5,1.5c0,0.1,0,0.1-0.1,0.2c-0.1,0-0.1,0.1-0.2,0.1h-0.5c-0.2,0-0.3-0.1-0.3-0.3c0-0.7-0.3-1.1-0.8-1.1
			c-0.3,0-0.5,0.1-0.6,0.3c-0.1,0.2-0.2,0.6-0.2,1.1v2.3c0,0.6,0.1,0.9,0.2,1.2c0.1,0.2,0.3,0.3,0.6,0.3c0.5,0,0.8-0.4,0.8-1.3
			c0-0.2,0.1-0.3,0.3-0.3h0.5C45.8,109.4,45.9,109.5,45.9,109.7z"/>
		<path class="st5" d="M53,105.8c0,0.2-0.1,0.3-0.3,0.3H52c-0.2,0-0.3,0.1-0.3,0.3v5.3c0,0.1,0,0.1-0.1,0.2c-0.1,0-0.1,0.1-0.2,0.1
			h-0.5c-0.1,0-0.1,0-0.2-0.1c-0.1-0.1-0.1-0.1-0.1-0.2v-5.3c0-0.1,0-0.1-0.1-0.2c-0.1-0.1-0.1-0.1-0.2-0.1h-0.8
			c-0.1,0-0.1,0-0.2-0.1c-0.1-0.1-0.1-0.1-0.1-0.2v-0.5c0-0.1,0-0.1,0.1-0.2c0.1-0.1,0.1-0.1,0.2-0.1h3.2c0.2,0,0.3,0.1,0.3,0.3
			V105.8z M53,105.8c0,0.2-0.1,0.3-0.3,0.3H52c-0.2,0-0.3,0.1-0.3,0.3v5.3c0,0.1,0,0.1-0.1,0.2c-0.1,0-0.1,0.1-0.2,0.1h-0.5
			c-0.1,0-0.1,0-0.2-0.1c-0.1-0.1-0.1-0.1-0.1-0.2v-5.3c0-0.1,0-0.1-0.1-0.2c-0.1-0.1-0.1-0.1-0.2-0.1h-0.8c-0.1,0-0.1,0-0.2-0.1
			c-0.1-0.1-0.1-0.1-0.1-0.2v-0.5c0-0.1,0-0.1,0.1-0.2c0.1-0.1,0.1-0.1,0.2-0.1h3.2c0.2,0,0.3,0.1,0.3,0.3V105.8z"/>
		<path class="st6" d="M53,105.8c0,0.2-0.1,0.3-0.3,0.3H52c-0.2,0-0.3,0.1-0.3,0.3v5.3c0,0.1,0,0.1-0.1,0.2c-0.1,0-0.1,0.1-0.2,0.1
			h-0.5c-0.1,0-0.1,0-0.2-0.1c-0.1-0.1-0.1-0.1-0.1-0.2v-5.3c0-0.1,0-0.1-0.1-0.2c-0.1-0.1-0.1-0.1-0.2-0.1h-0.8
			c-0.1,0-0.1,0-0.2-0.1c-0.1-0.1-0.1-0.1-0.1-0.2v-0.5c0-0.1,0-0.1,0.1-0.2c0.1-0.1,0.1-0.1,0.2-0.1h3.2c0.2,0,0.3,0.1,0.3,0.3
			V105.8z M53,105.8c0,0.2-0.1,0.3-0.3,0.3H52c-0.2,0-0.3,0.1-0.3,0.3v5.3c0,0.1,0,0.1-0.1,0.2c-0.1,0-0.1,0.1-0.2,0.1h-0.5
			c-0.1,0-0.1,0-0.2-0.1c-0.1-0.1-0.1-0.1-0.1-0.2v-5.3c0-0.1,0-0.1-0.1-0.2c-0.1-0.1-0.1-0.1-0.2-0.1h-0.8c-0.1,0-0.1,0-0.2-0.1
			c-0.1-0.1-0.1-0.1-0.1-0.2v-0.5c0-0.1,0-0.1,0.1-0.2c0.1-0.1,0.1-0.1,0.2-0.1h3.2c0.2,0,0.3,0.1,0.3,0.3V105.8z"/>
		<path class="st5" d="M57.7,111.6c0,0.1,0,0.1-0.1,0.2c-0.1,0-0.1,0.1-0.2,0.1h-0.5c-0.1,0-0.1,0-0.2-0.1c-0.1-0.1-0.1-0.1-0.1-0.2
			v-6.4c0-0.2,0.1-0.3,0.3-0.3h0.5c0.1,0,0.1,0,0.2,0.1c0.1,0,0.1,0.1,0.1,0.2V111.6z M57.7,111.6c0,0.1,0,0.1-0.1,0.2
			c-0.1,0-0.1,0.1-0.2,0.1h-0.5c-0.1,0-0.1,0-0.2-0.1c-0.1-0.1-0.1-0.1-0.1-0.2v-6.4c0-0.2,0.1-0.3,0.3-0.3h0.5c0.1,0,0.1,0,0.2,0.1
			c0.1,0,0.1,0.1,0.1,0.2V111.6z"/>
		<path class="st6" d="M57.7,111.6c0,0.1,0,0.1-0.1,0.2c-0.1,0-0.1,0.1-0.2,0.1h-0.5c-0.1,0-0.1,0-0.2-0.1c-0.1-0.1-0.1-0.1-0.1-0.2
			v-6.4c0-0.2,0.1-0.3,0.3-0.3h0.5c0.1,0,0.1,0,0.2,0.1c0.1,0,0.1,0.1,0.1,0.2V111.6z M57.7,111.6c0,0.1,0,0.1-0.1,0.2
			c-0.1,0-0.1,0.1-0.2,0.1h-0.5c-0.1,0-0.1,0-0.2-0.1c-0.1-0.1-0.1-0.1-0.1-0.2v-6.4c0-0.2,0.1-0.3,0.3-0.3h0.5c0.1,0,0.1,0,0.2,0.1
			c0.1,0,0.1,0.1,0.1,0.2V111.6z"/>
		<path class="st5" d="M65.4,105.2l-1.2,6.4c0,0.2-0.1,0.3-0.3,0.3h-0.8c-0.2,0-0.3-0.1-0.3-0.3l-1.4-6.4c0-0.2,0-0.3,0.2-0.3h0.5
			c0.2,0,0.3,0.1,0.3,0.3l0.9,4.7c0,0,0,0.1,0,0.1c0,0,0,0,0-0.1l0.8-4.7c0-0.2,0.1-0.3,0.3-0.3h0.5C65.4,105,65.5,105,65.4,105.2
			 M65.4,105.2l-1.2,6.4c0,0.2-0.1,0.3-0.3,0.3h-0.8c-0.2,0-0.3-0.1-0.3-0.3l-1.4-6.4c0-0.2,0-0.3,0.2-0.3h0.5
			c0.2,0,0.3,0.1,0.3,0.3l0.9,4.7c0,0,0,0.1,0,0.1c0,0,0,0,0-0.1l0.8-4.7c0-0.2,0.1-0.3,0.3-0.3h0.5C65.4,105,65.5,105,65.4,105.2"
			/>
		<path class="st6" d="M65.4,105.2l-1.2,6.4c0,0.2-0.1,0.3-0.3,0.3h-0.8c-0.2,0-0.3-0.1-0.3-0.3l-1.4-6.4c0-0.2,0-0.3,0.2-0.3h0.5
			c0.2,0,0.3,0.1,0.3,0.3l0.9,4.7c0,0,0,0.1,0,0.1c0,0,0,0,0-0.1l0.8-4.7c0-0.2,0.1-0.3,0.3-0.3h0.5C65.4,105,65.5,105,65.4,105.2z
			 M65.4,105.2l-1.2,6.4c0,0.2-0.1,0.3-0.3,0.3h-0.8c-0.2,0-0.3-0.1-0.3-0.3l-1.4-6.4c0-0.2,0-0.3,0.2-0.3h0.5
			c0.2,0,0.3,0.1,0.3,0.3l0.9,4.7c0,0,0,0.1,0,0.1c0,0,0,0,0-0.1l0.8-4.7c0-0.2,0.1-0.3,0.3-0.3h0.5C65.4,105,65.5,105,65.4,105.2z"
			/>
		<path class="st5" d="M70.4,106.6C70.4,106.5,70.4,106.5,70.4,106.6c-0.1-0.1-0.1,0-0.1,0l-0.4,2.5c0,0.2,0,0.3,0.2,0.3h0.6
			c0.2,0,0.3-0.1,0.2-0.3L70.4,106.6z M72.4,111.6c0,0.2,0,0.3-0.2,0.3h-0.5c-0.2,0-0.3-0.1-0.3-0.3l-0.2-0.9c0-0.2-0.2-0.3-0.3-0.3
			h-0.9c-0.1,0-0.1,0-0.2,0.1c-0.1,0.1-0.1,0.1-0.1,0.2l-0.2,0.9c0,0.2-0.1,0.3-0.3,0.3h-0.5c-0.2,0-0.2-0.1-0.2-0.3l1.2-6.4
			c0-0.2,0.1-0.3,0.3-0.3h0.9c0.2,0,0.3,0.1,0.3,0.3L72.4,111.6z"/>
		<path class="st6" d="M70.4,106.6C70.4,106.5,70.4,106.5,70.4,106.6c-0.1-0.1-0.1,0-0.1,0l-0.4,2.5c0,0.2,0,0.3,0.2,0.3h0.6
			c0.2,0,0.3-0.1,0.2-0.3L70.4,106.6z M72.4,111.6c0,0.2,0,0.3-0.2,0.3h-0.5c-0.2,0-0.3-0.1-0.3-0.3l-0.2-0.9c0-0.2-0.2-0.3-0.3-0.3
			h-0.9c-0.1,0-0.1,0-0.2,0.1c-0.1,0.1-0.1,0.1-0.1,0.2l-0.2,0.9c0,0.2-0.1,0.3-0.3,0.3h-0.5c-0.2,0-0.2-0.1-0.2-0.3l1.2-6.4
			c0-0.2,0.1-0.3,0.3-0.3h0.9c0.2,0,0.3,0.1,0.3,0.3L72.4,111.6z"/>
		<path class="st5" d="M79,105.8c0,0.2-0.1,0.3-0.3,0.3h-0.8c-0.2,0-0.3,0.1-0.3,0.3v5.3c0,0.1,0,0.1-0.1,0.2
			c-0.1,0-0.1,0.1-0.2,0.1h-0.5c-0.1,0-0.1,0-0.2-0.1c0-0.1-0.1-0.1-0.1-0.2v-5.3c0-0.1,0-0.1-0.1-0.2c-0.1-0.1-0.1-0.1-0.2-0.1
			h-0.8c-0.1,0-0.1,0-0.2-0.1c-0.1-0.1-0.1-0.1-0.1-0.2v-0.5c0-0.1,0-0.1,0.1-0.2c0.1-0.1,0.1-0.1,0.2-0.1h3.2
			c0.2,0,0.3,0.1,0.3,0.3V105.8z M79,105.8c0,0.2-0.1,0.3-0.3,0.3h-0.8c-0.2,0-0.3,0.1-0.3,0.3v5.3c0,0.1,0,0.1-0.1,0.2
			c-0.1,0-0.1,0.1-0.2,0.1h-0.5c-0.1,0-0.1,0-0.2-0.1c0-0.1-0.1-0.1-0.1-0.2v-5.3c0-0.1,0-0.1-0.1-0.2c-0.1-0.1-0.1-0.1-0.2-0.1
			h-0.8c-0.1,0-0.1,0-0.2-0.1c-0.1-0.1-0.1-0.1-0.1-0.2v-0.5c0-0.1,0-0.1,0.1-0.2c0.1-0.1,0.1-0.1,0.2-0.1h3.2
			c0.2,0,0.3,0.1,0.3,0.3V105.8z"/>
		<path class="st6" d="M79,105.8c0,0.2-0.1,0.3-0.3,0.3h-0.8c-0.2,0-0.3,0.1-0.3,0.3v5.3c0,0.1,0,0.1-0.1,0.2
			c-0.1,0-0.1,0.1-0.2,0.1h-0.5c-0.1,0-0.1,0-0.2-0.1c0-0.1-0.1-0.1-0.1-0.2v-5.3c0-0.1,0-0.1-0.1-0.2c-0.1-0.1-0.1-0.1-0.2-0.1
			h-0.8c-0.1,0-0.1,0-0.2-0.1c-0.1-0.1-0.1-0.1-0.1-0.2v-0.5c0-0.1,0-0.1,0.1-0.2c0.1-0.1,0.1-0.1,0.2-0.1h3.2
			c0.2,0,0.3,0.1,0.3,0.3V105.8z M79,105.8c0,0.2-0.1,0.3-0.3,0.3h-0.8c-0.2,0-0.3,0.1-0.3,0.3v5.3c0,0.1,0,0.1-0.1,0.2
			c-0.1,0-0.1,0.1-0.2,0.1h-0.5c-0.1,0-0.1,0-0.2-0.1c0-0.1-0.1-0.1-0.1-0.2v-5.3c0-0.1,0-0.1-0.1-0.2c-0.1-0.1-0.1-0.1-0.2-0.1
			h-0.8c-0.1,0-0.1,0-0.2-0.1c-0.1-0.1-0.1-0.1-0.1-0.2v-0.5c0-0.1,0-0.1,0.1-0.2c0.1-0.1,0.1-0.1,0.2-0.1h3.2
			c0.2,0,0.3,0.1,0.3,0.3V105.8z"/>
		<path class="st5" d="M83.7,111.6c0,0.1,0,0.1-0.1,0.2c-0.1,0-0.1,0.1-0.2,0.1h-0.5c-0.1,0-0.1,0-0.2-0.1c-0.1-0.1-0.1-0.1-0.1-0.2
			v-6.4c0-0.2,0.1-0.3,0.3-0.3h0.5c0.1,0,0.1,0,0.2,0.1c0.1,0,0.1,0.1,0.1,0.2V111.6z M83.7,111.6c0,0.1,0,0.1-0.1,0.2
			c-0.1,0-0.1,0.1-0.2,0.1h-0.5c-0.1,0-0.1,0-0.2-0.1c-0.1-0.1-0.1-0.1-0.1-0.2v-6.4c0-0.2,0.1-0.3,0.3-0.3h0.5c0.1,0,0.1,0,0.2,0.1
			c0.1,0,0.1,0.1,0.1,0.2V111.6z"/>
		<path class="st6" d="M83.7,111.6c0,0.1,0,0.1-0.1,0.2c-0.1,0-0.1,0.1-0.2,0.1h-0.5c-0.1,0-0.1,0-0.2-0.1c-0.1-0.1-0.1-0.1-0.1-0.2
			v-6.4c0-0.2,0.1-0.3,0.3-0.3h0.5c0.1,0,0.1,0,0.2,0.1c0.1,0,0.1,0.1,0.1,0.2V111.6z M83.7,111.6c0,0.1,0,0.1-0.1,0.2
			c-0.1,0-0.1,0.1-0.2,0.1h-0.5c-0.1,0-0.1,0-0.2-0.1c-0.1-0.1-0.1-0.1-0.1-0.2v-6.4c0-0.2,0.1-0.3,0.3-0.3h0.5c0.1,0,0.1,0,0.2,0.1
			c0.1,0,0.1,0.1,0.1,0.2V111.6z"/>
		<path class="st5" d="M90.4,107.2c0-0.5-0.1-0.8-0.2-1c-0.1-0.2-0.3-0.3-0.6-0.3c-0.3,0-0.5,0.1-0.6,0.3c-0.1,0.2-0.2,0.5-0.2,1
			v2.5c0,0.5,0.1,0.8,0.2,1c0.1,0.2,0.3,0.3,0.6,0.3c0.3,0,0.5-0.1,0.6-0.3c0.1-0.2,0.2-0.5,0.2-1V107.2z M91.5,109.7
			c0,0.7-0.1,1.3-0.4,1.6c-0.3,0.4-0.8,0.7-1.5,0.7c-0.7,0-1.2-0.2-1.5-0.7c-0.3-0.4-0.4-0.9-0.4-1.6v-2.5c0-0.7,0.1-1.3,0.4-1.6
			c0.3-0.4,0.8-0.7,1.5-0.7c0.7,0,1.2,0.2,1.5,0.7c0.3,0.4,0.4,0.9,0.4,1.6V109.7z"/>
		<path class="st6" d="M90.4,107.2c0-0.5-0.1-0.8-0.2-1c-0.1-0.2-0.3-0.3-0.6-0.3c-0.3,0-0.5,0.1-0.6,0.3c-0.1,0.2-0.2,0.5-0.2,1
			v2.5c0,0.5,0.1,0.8,0.2,1c0.1,0.2,0.3,0.3,0.6,0.3c0.3,0,0.5-0.1,0.6-0.3c0.1-0.2,0.2-0.5,0.2-1V107.2z M91.5,109.7
			c0,0.7-0.1,1.3-0.4,1.6c-0.3,0.4-0.8,0.7-1.5,0.7c-0.7,0-1.2-0.2-1.5-0.7c-0.3-0.4-0.4-0.9-0.4-1.6v-2.5c0-0.7,0.1-1.3,0.4-1.6
			c0.3-0.4,0.8-0.7,1.5-0.7c0.7,0,1.2,0.2,1.5,0.7c0.3,0.4,0.4,0.9,0.4,1.6V109.7z"/>
		<path class="st5" d="M99.3,111.6c0,0.1,0,0.1-0.1,0.2c-0.1,0-0.1,0.1-0.2,0.1h-0.5c-0.2,0-0.3-0.1-0.4-0.3l-1.5-3.6
			c0-0.1,0-0.1-0.1-0.1c0,0,0,0,0,0.1v3.6c0,0.2-0.1,0.3-0.3,0.3h-0.5c-0.2,0-0.3-0.1-0.3-0.3v-6.4c0-0.2,0.1-0.3,0.3-0.3h0.5
			c0.2,0,0.3,0.1,0.4,0.3l1.5,3.6c0,0.1,0.1,0.1,0.1,0.1c0,0,0,0,0-0.1v-3.6c0-0.2,0.1-0.3,0.3-0.3H99c0.2,0,0.3,0.1,0.3,0.3V111.6z
			 M99.3,111.6c0,0.1,0,0.1-0.1,0.2c-0.1,0-0.1,0.1-0.2,0.1h-0.5c-0.2,0-0.3-0.1-0.4-0.3l-1.5-3.6c0-0.1,0-0.1-0.1-0.1
			c0,0,0,0,0,0.1v3.6c0,0.2-0.1,0.3-0.3,0.3h-0.5c-0.2,0-0.3-0.1-0.3-0.3v-6.4c0-0.2,0.1-0.3,0.3-0.3h0.5c0.2,0,0.3,0.1,0.4,0.3
			l1.5,3.6c0,0.1,0.1,0.1,0.1,0.1c0,0,0,0,0-0.1v-3.6c0-0.2,0.1-0.3,0.3-0.3H99c0.2,0,0.3,0.1,0.3,0.3V111.6z"/>
		<path class="st6" d="M99.3,111.6c0,0.1,0,0.1-0.1,0.2c-0.1,0-0.1,0.1-0.2,0.1h-0.5c-0.2,0-0.3-0.1-0.4-0.3l-1.5-3.6
			c0-0.1,0-0.1-0.1-0.1c0,0,0,0,0,0.1v3.6c0,0.2-0.1,0.3-0.3,0.3h-0.5c-0.2,0-0.3-0.1-0.3-0.3v-6.4c0-0.2,0.1-0.3,0.3-0.3h0.5
			c0.2,0,0.3,0.1,0.4,0.3l1.5,3.6c0,0.1,0.1,0.1,0.1,0.1c0,0,0,0,0-0.1v-3.6c0-0.2,0.1-0.3,0.3-0.3H99c0.2,0,0.3,0.1,0.3,0.3V111.6z
			 M99.3,111.6c0,0.1,0,0.1-0.1,0.2c-0.1,0-0.1,0.1-0.2,0.1h-0.5c-0.2,0-0.3-0.1-0.4-0.3l-1.5-3.6c0-0.1,0-0.1-0.1-0.1
			c0,0,0,0,0,0.1v3.6c0,0.2-0.1,0.3-0.3,0.3h-0.5c-0.2,0-0.3-0.1-0.3-0.3v-6.4c0-0.2,0.1-0.3,0.3-0.3h0.5c0.2,0,0.3,0.1,0.4,0.3
			l1.5,3.6c0,0.1,0.1,0.1,0.1,0.1c0,0,0,0,0-0.1v-3.6c0-0.2,0.1-0.3,0.3-0.3H99c0.2,0,0.3,0.1,0.3,0.3V111.6z"/>
	</g>
</g>
</svg>
